<?xml version="1.0" encoding="UTF-8"?>
<!DOCTYPE svg PUBLIC "-//W3C//DTD SVG 1.0//EN" "http://www.w3.org/TR/2001/REC-SVG-20010904/DTD/svg10.dtd">
<!-- Creator: CorelDRAW X7 -->
<svg xmlns="http://www.w3.org/2000/svg" xml:space="preserve" width="55px" height="40px" version="1.0" style="shape-rendering:geometricPrecision; text-rendering:geometricPrecision; image-rendering:optimizeQuality; fill-rule:evenodd; clip-rule:evenodd"
viewBox="0 0 1230 893"
 xmlns:xlink="http://www.w3.org/1999/xlink">
 <defs>
  <style type="text/css">
   <![CDATA[
    .fil0 {fill:#FEFEFE;fill-rule:nonzero}
   ]]>
  </style>
 </defs>
 <g id="Слой_x0020_1">
  <metadata id="CorelCorpID_0Corel-Layer"/>
  <g id="_384488720">
   <path class="fil0" d="M143 0l944 0c39,0 75,16 101,42l0 0c26,26 42,61 42,101l0 607c0,39 -16,75 -42,101l-1 1c-26,25 -61,41 -100,41l-944 0c-40,0 -75,-17 -101,-42l-1 -1c-25,-26 -41,-62 -41,-100l0 -607c0,-40 16,-75 42,-101 26,-26 61,-42 101,-42zm944 38l-944 0c-29,0 -55,12 -74,31 -19,19 -31,45 -31,74l0 607c0,28 12,54 30,73l1 1c19,19 45,30 74,30l944 0c28,0 54,-11 73,-29l1 -1c19,-19 31,-45 31,-74l0 -607c0,-29 -12,-55 -31,-74 -19,-19 -45,-31 -74,-31z"/>
   <path class="fil0" d="M289 564l83 -9c2,17 8,30 16,38 9,8 20,12 34,12 18,0 33,-8 45,-25 13,-16 20,-50 24,-102 -22,25 -49,38 -81,38 -36,0 -66,-14 -92,-41 -26,-28 -39,-63 -39,-107 0,-46 14,-83 41,-110 27,-28 62,-42 104,-42 45,0 83,17 112,53 30,35 44,93 44,175 0,82 -15,142 -45,178 -31,37 -70,55 -119,55 -36,0 -64,-9 -86,-28 -21,-19 -35,-47 -41,-85zm194 -189c0,-28 -6,-49 -19,-65 -13,-15 -27,-23 -44,-23 -16,0 -29,7 -40,19 -10,13 -16,33 -16,62 0,29 6,50 18,64 11,13 25,20 42,20 17,0 31,-6 42,-19 12,-13 17,-33 17,-58zm270 229l0 -117 -118 0 0 -81 118 0 0 -117 79 0 0 117 119 0 0 81 -119 0 0 117 -79 0z"/>
  </g>
 </g>
</svg>
