<?xml version="1.0" encoding="UTF-8"?>
<!DOCTYPE svg PUBLIC "-//W3C//DTD SVG 1.0//EN" "http://www.w3.org/TR/2001/REC-SVG-20010904/DTD/svg10.dtd">
<!-- Creator: CorelDRAW X7 -->
<svg xmlns="http://www.w3.org/2000/svg" xml:space="preserve" width="119px" height="40px" version="1.0" style="shape-rendering:geometricPrecision; text-rendering:geometricPrecision; image-rendering:optimizeQuality; fill-rule:evenodd; clip-rule:evenodd"
viewBox="0 0 5785 1952"
 xmlns:xlink="http://www.w3.org/1999/xlink">
 <defs>
  <style type="text/css">
   <![CDATA[
    .fil0 {fill:#FEFEFE;fill-rule:nonzero}
   ]]>
  </style>
 </defs>
 <g id="Слой_x0020_1">
  <metadata id="CorelCorpID_0Corel-Layer"/>
  <g id="_900073848">
   <path class="fil0" d="M5785 1658c0,81 -33,154 -86,208l-3 2c-53,52 -125,84 -205,84l-5197 0c-81,0 -155,-33 -208,-86l-2 -3c-52,-53 -84,-125 -84,-205l0 -1364c0,-81 33,-155 86,-208 53,-53 127,-86 208,-86l5197 0c81,0 155,33 208,86l0 0c53,53 86,127 86,208l0 1364zm-145 149c38,-38 61,-91 61,-149l0 -1364c0,-58 -23,-111 -61,-149l0 0 0 0c-38,-38 -91,-61 -149,-61l-5197 0c-58,0 -111,23 -149,61 -38,38 -62,91 -62,149l0 1364c0,57 23,109 60,147l2 2c38,38 91,61 149,61l5197 0c57,0 109,-22 147,-59l2 -2z"/>
   <path class="fil0" d="M1528 1277c-30,67 -44,97 -83,156 -54,83 -131,186 -225,186 -85,1 -106,-54 -220,-54 -115,1 -138,55 -223,55 -94,-1 -167,-94 -221,-177 -151,-231 -167,-502 -74,-647 67,-102 171,-162 270,-162 100,0 163,55 246,55 81,0 130,-55 246,-55 88,0 181,47 247,130 -217,119 -182,430 37,513z"/>
   <path class="fil0" d="M1156 541c42,-54 74,-131 63,-209 -69,5 -150,49 -197,106 -43,52 -78,129 -64,204 75,2 153,-43 198,-101z"/>
   <path class="fil0" d="M2042 898c7,29 15,58 25,90l59 170 -167 0 58 -171c9,-27 17,-57 25,-89zm-52 -105l-217 640 100 0 64 -196 211 0 66 196 103 0 -218 -640 -109 0z"/>
   <path class="fil0" d="M2574 1039c86,0 125,80 125,159 0,103 -50,166 -129,166 -54,0 -101,-37 -114,-90 -2,-8 -3,-19 -3,-31l0 -78c0,-7 1,-16 3,-24 0,-3 1,-5 1,-8 15,-55 62,-94 117,-94zm24 -80c-66,0 -119,25 -154,74l-4 -64 -88 0 0 8c3,40 4,84 4,146l0 494 97 0 0 -230c30,36 78,56 132,56 56,0 108,-22 146,-62 43,-45 65,-109 65,-186 0,-68 -19,-127 -56,-171 -36,-42 -87,-65 -142,-65z"/>
   <path class="fil0" d="M3072 1039c86,0 125,80 125,159 0,103 -50,166 -129,166 -54,0 -101,-37 -114,-90 -2,-8 -3,-19 -3,-31l0 -78c0,-7 1,-16 3,-24 0,-3 1,-5 1,-8 15,-55 63,-94 117,-94zm24 -80c-66,0 -119,25 -154,74l-4 -64 -88 0 0 8c3,40 4,84 4,146l0 494 97 0 0 -230c30,36 78,56 132,56 56,0 109,-22 147,-62 42,-45 64,-109 64,-186 0,-68 -19,-127 -56,-171 -36,-42 -86,-65 -142,-65z"/>
   <path class="fil0" d="M3720 1064c-90,-35 -119,-62 -119,-113 0,-43 34,-86 110,-86 62,0 102,21 113,28l8 5 28 -81 -6 -3c-16,-9 -62,-31 -140,-31 -124,0 -210,73 -210,177 0,84 54,143 170,185 82,31 112,62 112,116 0,62 -47,99 -123,99 -49,0 -100,-14 -139,-39l-8 -6 -26 83 4 3c37,25 106,42 164,42 166,0 225,-101 225,-188 0,-90 -47,-145 -163,-191z"/>
   <path class="fil0" d="M4057 859l-95 29 0 81 -69 0 0 77 69 0 0 238c0,57 11,97 34,123 21,23 55,36 93,36 37,0 63,-7 75,-11l6 -2 -5 -78 -9 3c-12,4 -25,5 -45,5 -38,0 -54,-23 -54,-79l0 -235 117 0 0 -77 -117 0 0 -110z"/>
   <path class="fil0" d="M4411 1035c87,0 126,85 126,164 0,97 -54,168 -128,168l-1 0c-73,0 -127,-69 -127,-165 0,-83 40,-167 130,-167zm3 -76c-136,0 -230,101 -230,246 0,140 91,238 222,238l1 0c111,0 230,-77 230,-246 0,-69 -21,-129 -62,-172 -40,-43 -96,-66 -161,-66z"/>
   <path class="fil0" d="M4933 963l-6 -1c-8,-2 -15,-3 -24,-3 -50,0 -96,30 -121,78l-3 -68 -86 0 0 8c3,38 4,82 4,140l-1 316 97 0 0 -247c0,-13 0,-26 2,-37 11,-60 51,-98 102,-98 10,0 18,1 26,2l10 1 0 -91z"/>
   <path class="fil0" d="M5144 1032c30,0 54,9 71,27 28,28 33,70 34,90l-221 0c9,-56 44,-117 116,-117zm7 -74c-129,0 -219,103 -219,251 0,142 90,234 228,234 73,0 124,-16 153,-30l6 -2 -19 -73 -8 4c-26,10 -61,21 -121,21 -42,0 -139,-14 -145,-140l313 1 1 -7c2,-9 3,-23 3,-40 0,-101 -51,-219 -192,-219z"/>
   <path class="fil0" d="M1817 624c11,2 27,2 44,2 93,0 143,-47 143,-129 1,-72 -44,-117 -136,-117 -22,0 -39,2 -51,4l0 240zm-44 -269c27,-3 59,-6 93,-6 62,0 107,13 136,37 31,25 48,61 48,110 0,49 -17,89 -48,117 -32,29 -84,44 -149,44 -32,0 -57,-1 -80,-4l0 -298z"/>
   <path class="fil0" d="M2207 630c42,0 73,-36 73,-85 0,-37 -20,-84 -72,-84 -51,0 -74,44 -74,85 0,48 30,84 73,84l0 0zm-1 29c-65,0 -116,-43 -116,-112 0,-73 53,-115 120,-115 69,0 116,45 116,111 0,81 -62,116 -120,116l0 0z"/>
   <path class="fil0" d="M2395 437l33 110c6,24 13,47 17,70l2 0c5,-23 13,-46 21,-70l40 -110 36 0 38 108c9,26 16,49 21,72l2 0c4,-23 10,-45 18,-71l35 -109 43 0 -78 217 -40 0 -36 -104c-9,-24 -16,-46 -22,-72l-1 0c-6,27 -13,49 -22,73l-39 103 -40 0 -73 -217 45 0z"/>
   <path class="fil0" d="M2745 496c0,-23 0,-41 -2,-59l39 0 2 35 1 0c12,-20 40,-40 80,-40 34,0 86,18 86,92l0 130 -44 0 0 -125c0,-35 -15,-65 -56,-65 -29,0 -51,19 -59,41 -2,4 -3,12 -3,18l0 131 -44 0 0 -158z"/>
   <polygon class="fil0" points="3022,335 3066,335 3066,654 3022,654 "/>
   <path class="fil0" d="M3238 630c42,0 74,-36 74,-85 0,-37 -21,-84 -73,-84 -51,0 -73,44 -73,85 0,48 30,84 72,84l0 0zm-1 29c-65,0 -116,-43 -116,-112 0,-73 54,-115 120,-115 69,0 116,45 116,111 0,81 -62,116 -120,116l0 0z"/>
   <path class="fil0" d="M3540 543c-48,-1 -102,7 -102,49 0,26 18,38 40,38 32,0 53,-18 60,-36 1,-4 2,-9 2,-13l0 -38zm43 59c0,19 1,37 3,52l-39 0 -4 -27 -2 0c-13,17 -39,32 -74,32 -48,0 -73,-31 -73,-62 0,-53 52,-82 145,-81l0 -5c0,-18 -6,-51 -55,-50 -23,0 -46,6 -63,16l-10 -26c20,-12 49,-19 79,-19 75,0 93,45 93,89l0 81z"/>
   <path class="fil0" d="M3818 525c0,-5 -1,-11 -2,-17 -7,-25 -31,-45 -64,-45 -45,0 -72,36 -72,83 0,45 24,81 71,81 30,0 57,-18 65,-47 1,-5 2,-11 2,-17l0 -38zm44 -190l0 263c0,19 0,41 2,56l-40 0 -2 -37 -1 0c-13,24 -42,42 -82,42 -58,0 -103,-44 -103,-110 -1,-73 49,-117 108,-117 37,0 62,15 73,33l1 0 0 -130 44 0z"/>
   <path class="fil0" d="M4140 630c42,0 73,-36 73,-85 0,-37 -20,-84 -72,-84 -51,0 -74,44 -74,85 0,48 30,84 72,84l1 0zm-2 29c-64,0 -115,-43 -115,-112 0,-73 53,-115 119,-115 70,0 117,45 117,111 0,81 -63,116 -120,116l-1 0z"/>
   <path class="fil0" d="M4314 496c0,-23 0,-41 -2,-59l39 0 3 35 1 0c11,-20 39,-40 79,-40 34,0 86,18 86,92l0 130 -44 0 0 -125c0,-35 -15,-65 -56,-65 -29,0 -51,19 -59,41 -2,4 -3,12 -3,18l0 131 -44 0 0 -158z"/>
   <path class="fil0" d="M4750 384l0 53 62 0 0 30 -62 0 0 117c0,27 8,42 33,42 11,0 19,0 25,-2l2 30c-8,3 -22,5 -39,5 -20,0 -37,-6 -47,-16 -12,-12 -17,-32 -17,-58l0 -118 -38 0 0 -30 38 0 0 -40 43 -13z"/>
   <path class="fil0" d="M4862 335l44 0 0 136 1 0c7,-11 18,-22 31,-28 13,-7 29,-11 45,-11 32,0 84,18 84,93l0 129 -43 0 0 -125c0,-35 -15,-64 -56,-64 -29,0 -51,18 -59,39 -3,5 -3,11 -3,19l0 131 -44 0 0 -319z"/>
   <path class="fil0" d="M5292 524c0,-25 -12,-64 -60,-64 -45,0 -64,36 -68,64l128 0zm-128 28c1,54 38,76 82,76 31,0 51,-5 67,-11l8 28c-16,6 -43,14 -81,14 -74,0 -119,-45 -119,-110 0,-66 44,-118 114,-118 79,0 99,63 99,103 0,8 0,14 -1,19l-169 -1z"/>
  </g>
 </g>
</svg>
