<?xml version="1.0" encoding="UTF-8"?>
<!DOCTYPE svg PUBLIC "-//W3C//DTD SVG 1.0//EN" "http://www.w3.org/TR/2001/REC-SVG-20010904/DTD/svg10.dtd">
<!-- Creator: CorelDRAW X7 -->
<svg xmlns="http://www.w3.org/2000/svg" xml:space="preserve" width="119px" height="40px" version="1.0" style="shape-rendering:geometricPrecision; text-rendering:geometricPrecision; image-rendering:optimizeQuality; fill-rule:evenodd; clip-rule:evenodd"
viewBox="0 0 5847 1973"
 xmlns:xlink="http://www.w3.org/1999/xlink">
 <defs>
  <style type="text/css">
   <![CDATA[
    .fil1 {fill:#FEFEFE}
    .fil0 {fill:#FEFEFE;fill-rule:nonzero}
   ]]>
  </style>
 </defs>
 <g id="Слой_x0020_1">
  <metadata id="CorelCorpID_0Corel-Layer"/>
  <g id="_365439600">
   <path class="fil0" d="M5847 1675c0,82 -33,157 -87,211 -54,53 -128,87 -210,87l-5253 0c-82,0 -156,-34 -210,-87 -54,-54 -87,-129 -87,-211l0 -1378c0,-82 33,-156 87,-210 54,-54 128,-87 210,-87l5253 0c82,0 156,33 210,87 54,54 87,128 87,210l0 1378zm-147 151c39,-38 63,-92 63,-151l0 -1378c0,-59 -24,-112 -63,-150 -38,-39 -91,-63 -150,-63l-5253 0c-59,0 -112,24 -150,63 -39,38 -63,91 -63,150l0 1378c0,59 24,113 63,151 38,39 91,63 150,63l5253 0c59,0 112,-24 150,-63z"/>
   <path class="fil0" d="M4431 956c-37,0 -64,11 -80,31 -17,21 -25,54 -26,99l0 12c0,51 9,88 26,110 17,22 44,33 82,33 31,0 56,-13 74,-38 18,-26 26,-61 26,-106 0,-45 -8,-80 -26,-104 -18,-24 -43,-37 -76,-37zm8 331c-23,0 -45,-4 -65,-13 -19,-9 -36,-22 -49,-40l-4 0c3,21 4,41 4,60l0 150 -55 0 0 -528 45 0 8 50 2 0c14,-20 31,-34 50,-43 19,-9 40,-13 64,-13 49,0 86,16 112,49 26,33 40,79 40,139 0,60 -14,106 -40,139 -27,33 -64,50 -112,50z"/>
   <polygon class="fil0" points="4718,1280 4663,1280 4663,764 4718,764 "/>
   <path class="fil0" d="M4911 1241c34,0 61,-9 80,-28 20,-19 30,-45 30,-79l0 -33 -55 3c-44,1 -76,8 -95,20 -19,12 -29,31 -29,56 0,20 6,35 18,46 12,10 29,15 51,15zm124 39l-11 -51 -2 0c-19,22 -37,38 -55,46 -18,8 -40,12 -67,12 -36,0 -65,-9 -85,-28 -21,-19 -31,-45 -31,-79 0,-74 59,-112 176,-116l62 -2 0 -22c0,-29 -6,-50 -18,-64 -13,-13 -32,-20 -59,-20 -31,0 -65,9 -103,28l-17 -42c18,-10 38,-18 59,-23 21,-6 43,-9 64,-9 44,0 76,10 97,29 21,20 31,50 31,93l0 248 -41 0z"/>
   <path class="fil0" d="M5108 916l59 0 80 208c17,47 28,82 32,103l3 0c3,-12 9,-31 18,-58 9,-28 39,-112 90,-253l59 0 -156 415c-15,41 -34,70 -54,87 -21,17 -46,26 -76,26 -17,0 -34,-2 -50,-6l0 -44c12,3 25,4 41,4 37,0 64,-21 81,-64l20 -52 -147 -366z"/>
   <path class="fil0" d="M3386 1144c18,-18 19,-42 19,-56 0,-55 -33,-140 -96,-140 -20,0 -41,10 -53,25 -13,16 -17,36 -17,56 0,51 30,136 95,136 19,0 40,-9 52,-21zm-22 144c-6,-1 -10,-1 -17,-1 -7,0 -48,2 -80,13 -17,6 -66,24 -66,78 0,54 53,93 134,93 73,0 112,-35 112,-82 0,-39 -25,-60 -83,-101zm54 -338c18,15 54,45 54,103 0,56 -32,83 -64,108 -10,10 -21,21 -21,37 0,17 11,26 20,33l27 21c34,29 64,54 64,107 0,72 -69,144 -200,144 -111,0 -164,-53 -164,-109 0,-27 14,-66 59,-93 47,-29 111,-33 145,-35 -10,-14 -23,-28 -23,-52 0,-13 4,-20 8,-29 -8,0 -17,1 -24,1 -81,0 -127,-60 -127,-119 0,-35 16,-74 49,-102 43,-36 95,-42 136,-42l157 0 -49 27 -47 0z"/>
   <path class="fil0" d="M3034 1214c18,-24 23,-54 23,-84 0,-67 -32,-195 -126,-195 -26,0 -51,10 -69,26 -30,27 -35,60 -35,93 0,75 37,199 129,199 30,0 60,-14 78,-39zm-95 62c-121,0 -186,-94 -186,-179 0,-100 82,-185 197,-185 112,0 182,87 182,179 0,90 -69,185 -193,185z"/>
   <path class="fil0" d="M2622 1214c18,-24 23,-54 23,-84 0,-67 -32,-195 -127,-195 -25,0 -50,10 -68,26 -30,27 -35,60 -35,93 0,75 37,199 129,199 30,0 60,-14 78,-39zm-95 62c-121,0 -186,-94 -186,-179 0,-100 82,-185 197,-185 112,0 182,87 182,179 0,90 -69,185 -193,185z"/>
   <path class="fil0" d="M2283 1264l-109 25c-44,7 -84,13 -126,13 -211,0 -291,-155 -291,-276 0,-149 114,-286 309,-286 41,0 81,6 116,16 58,16 84,36 101,47l-63 61 -27 6 19 -31c-26,-25 -73,-72 -163,-72 -121,0 -212,92 -212,226 0,143 104,279 271,279 48,0 74,-10 97,-19l0 -123 -116 6 61 -33 162 0 -20 19c-5,5 -6,6 -7,12 -1,7 -2,29 -2,37l0 93z"/>
   <path class="fil0" d="M3660 1242c-26,-2 -31,-7 -31,-37l0 -8 0 -424c0,-2 0,-3 1,-5 3,-27 10,-31 34,-45l-109 0 -58 27 59 0 0 1 0 -1 0 447 0 25c0,15 -3,18 -21,41l135 0 29 -17c-13,-2 -26,-2 -39,-4z"/>
   <path class="fil0" d="M3899 1023c15,-5 22,-10 22,-21 0,-30 -34,-65 -75,-65 -30,0 -87,24 -87,106 0,13 1,26 2,40l138 -60zm72 226c-9,5 -17,10 -25,14 -25,11 -51,14 -74,14 -24,0 -62,-1 -101,-29 -54,-38 -77,-104 -77,-161 0,-117 95,-175 173,-175 28,0 56,7 79,21 38,25 47,58 53,76l-179 72 -58 4c19,97 84,153 156,153 39,0 67,-14 93,-27l-40 38z"/>
   <polygon class="fil0" points="4044,917 4044,967 4038,967 4038,917 4021,917 4021,912 4061,912 4061,917 "/>
   <polygon class="fil0" points="4112,967 4112,917 4112,917 4097,967 4092,967 4076,917 4076,917 4076,967 4070,967 4070,912 4080,912 4094,957 4094,957 4108,912 4118,912 4118,967 "/>
   <path class="fil0" d="M1854 524c-14,-41 -21,-63 -21,-66l-1 0c0,3 -7,25 -21,66l43 0zm55 67l-38 0c0,-5 -4,-20 -11,-44l-55 0c-7,24 -11,38 -11,44l-36 0c0,-3 9,-28 28,-76 18,-47 27,-74 27,-78l45 0c0,4 9,30 25,77 17,47 26,73 26,77z"/>
   <path class="fil0" d="M2062 591l-30 0c0,-3 -11,-20 -32,-51 -23,-33 -36,-55 -39,-67l-2 0c2,17 3,33 3,47 0,19 0,43 1,71l-29 0c1,-24 2,-51 2,-81 0,-29 -1,-53 -2,-73l35 0c0,4 10,20 30,50 21,31 33,52 36,63l1 0c-2,-18 -2,-33 -2,-47 0,-22 -1,-44 -2,-66l30 0c-2,19 -2,44 -2,73 0,30 0,57 2,81z"/>
   <path class="fil0" d="M2201 514c0,-16 -4,-28 -13,-39 -9,-10 -23,-15 -41,-15 -3,0 -8,0 -14,1 1,15 2,32 2,49 0,19 0,38 1,56 5,1 10,2 15,2 17,0 30,-5 38,-16 8,-10 12,-23 12,-38zm33 -6c0,23 -8,43 -22,59 -14,17 -35,25 -61,25 -11,0 -27,0 -48,-1 1,-24 2,-51 2,-81 0,-29 -1,-53 -2,-73l21 0c3,0 8,-1 15,-1 7,0 11,0 13,0 29,0 49,7 62,21 13,14 20,31 20,51z"/>
   <path class="fil0" d="M2348 482c0,-16 -10,-24 -31,-24 -7,0 -14,1 -19,2 0,12 1,28 1,48 4,0 8,0 11,0 25,0 38,-9 38,-26zm44 109l-35 0c-9,-28 -16,-45 -21,-52 -5,-6 -13,-10 -24,-10 -4,0 -9,0 -13,0 0,21 0,41 1,62l-33 0c1,-24 2,-51 2,-81 0,-29 -1,-53 -2,-73l21 0c2,0 7,-1 14,-1 8,0 15,0 21,0 37,0 55,12 55,37 0,20 -10,33 -31,41l0 2c8,2 15,8 21,19 6,10 14,29 24,56z"/>
   <path class="fil0" d="M2530 514c0,-16 -5,-30 -13,-40 -9,-10 -19,-15 -32,-15 -11,0 -21,5 -29,15 -8,11 -12,24 -12,40 0,16 4,29 13,40 8,10 19,15 31,15 12,0 21,-5 29,-15 8,-11 13,-24 13,-40zm32 -3c0,24 -7,44 -22,60 -15,16 -33,24 -55,24 -21,0 -39,-7 -53,-22 -14,-14 -21,-33 -21,-56 0,-24 8,-44 23,-60 14,-16 33,-24 55,-24 21,0 38,7 52,22 14,15 21,33 21,56z"/>
   <path class="fil0" d="M2629 591l-33 0c1,-24 1,-51 1,-81 0,-29 0,-53 -1,-73l33 0c-1,19 -1,44 -1,73 0,30 0,57 1,81z"/>
   <path class="fil0" d="M2769 514c0,-16 -4,-28 -13,-39 -9,-10 -23,-15 -41,-15 -3,0 -8,0 -14,1 1,15 1,32 1,49 0,19 1,38 1,56 6,1 11,2 16,2 17,0 29,-5 38,-16 8,-10 12,-23 12,-38zm32 -6c0,23 -7,43 -21,59 -15,17 -35,25 -61,25 -11,0 -28,0 -48,-1 1,-24 1,-51 1,-81 0,-29 0,-53 -1,-73l21 0c3,0 8,-1 15,-1 7,0 11,0 13,0 29,0 49,7 62,21 13,14 19,31 19,51z"/>
   <path class="fil0" d="M2975 524c-14,-41 -21,-63 -21,-66l-1 0c0,3 -7,25 -21,66l43 0zm55 67l-38 0c0,-5 -4,-20 -11,-44l-55 0c-7,24 -11,38 -11,44l-36 0c0,-3 9,-28 28,-76 18,-47 27,-74 27,-78l45 0c0,4 9,30 25,77 17,47 26,73 26,77z"/>
   <path class="fil0" d="M3137 484c0,-17 -11,-26 -33,-26 -6,0 -12,1 -18,2 1,15 1,32 1,51 2,0 4,0 7,0 29,0 43,-9 43,-27zm31 -7c0,19 -7,33 -21,42 -14,9 -31,13 -52,13 -3,0 -6,0 -8,0 0,15 1,35 2,59l-34 0c1,-23 2,-50 2,-81 0,-28 -1,-53 -2,-73l21 0c3,0 8,-1 17,-1 8,0 15,0 21,0 15,0 28,3 38,10 11,7 16,17 16,31z"/>
   <path class="fil0" d="M3280 484c0,-17 -12,-26 -34,-26 -6,0 -12,1 -18,2 1,15 2,32 2,51 1,0 4,0 6,0 29,0 44,-9 44,-27zm30 -7c0,19 -7,33 -21,42 -14,9 -31,13 -51,13 -4,0 -7,0 -8,0 0,15 0,35 1,59l-33 0c1,-23 1,-50 1,-81 0,-28 0,-53 -1,-73l20 0c3,0 9,-1 17,-1 8,0 16,0 22,0 15,0 27,3 38,10 10,7 15,17 15,31z"/>
   <path class="fil0" d="M3510 514c0,-16 -4,-30 -12,-40 -9,-10 -19,-15 -32,-15 -11,0 -21,5 -29,15 -8,11 -12,24 -12,40 0,16 4,29 12,40 9,10 19,15 32,15 11,0 21,-5 29,-15 8,-11 12,-24 12,-40zm33 -3c0,24 -7,44 -22,60 -15,16 -34,24 -56,24 -20,0 -38,-7 -52,-22 -14,-14 -21,-33 -21,-56 0,-24 7,-44 22,-60 15,-16 33,-24 55,-24 21,0 39,7 53,22 14,15 21,33 21,56z"/>
   <path class="fil0" d="M3704 591l-29 0c0,-3 -11,-20 -33,-51 -23,-33 -36,-55 -39,-67l-2 0c2,17 3,33 3,47 0,19 1,43 2,71l-29 0c1,-24 1,-51 1,-81 0,-29 0,-53 -1,-73l35 0c0,4 10,20 29,50 21,31 33,52 36,63l2 0c-2,-18 -3,-33 -3,-47 0,-22 -1,-44 -2,-66l30 0c-1,19 -2,44 -2,73 0,30 1,57 2,81z"/>
   <path class="fil1" d="M652 451c-44,-23 -94,-23 -137,1l503 464 169 -169 -535 -296z"/>
   <path class="fil1" d="M464 499c-12,20 -19,43 -19,68l0 839c0,23 6,46 18,66l506 -507 -505 -466z"/>
   <path class="fil1" d="M1412 871l-162 -89 -181 181 222 205 121 -66c43,-24 69,-68 69,-116 0,-48 -26,-91 -69,-115z"/>
   <path class="fil1" d="M1020 1012l-508 508c22,12 46,19 71,19 23,0 47,-6 69,-18l575 -318 -207 -191z"/>
  </g>
 </g>
</svg>
