<?xml version="1.0" encoding="UTF-8"?>
<!DOCTYPE svg PUBLIC "-//W3C//DTD SVG 1.0//EN" "http://www.w3.org/TR/2001/REC-SVG-20010904/DTD/svg10.dtd">
<!-- Creator: CorelDRAW X7 -->
<svg xmlns="http://www.w3.org/2000/svg" xml:space="preserve" width="4.2108mm" height="4.4109mm" version="1.0" style="shape-rendering:geometricPrecision; text-rendering:geometricPrecision; image-rendering:optimizeQuality; fill-rule:evenodd; clip-rule:evenodd"
viewBox="0 0 821 860"
 xmlns:xlink="http://www.w3.org/1999/xlink">
 <defs>
  <style type="text/css">
   <![CDATA[
    .fil0 {fill:#007336}
   ]]>
  </style>
 </defs>
 <g id="Слой_x0020_1">
  <metadata id="CorelCorpID_0Corel-Layer"/>
  <g id="_624263264">
   <g>
    <path class="fil0" d="M725 597c-45,16 -87,-35 -97,-114l-1 1c2,81 -30,157 -75,173 -46,16 -88,-35 -98,-115l-44 14 -44 -14c-9,80 -51,131 -97,115 -45,-16 -77,-92 -75,-173l-1 -1c-10,79 -52,130 -97,114 -45,-16 -77,-91 -76,-172l-20 -7 0 299c0,3 2,6 5,7l403 135c1,1 2,1 2,1 1,0 2,0 3,-1l403 -135c3,-1 5,-4 5,-7l0 -299 -21 7c2,81 -30,156 -75,172z"/>
    <path class="fil0" d="M97 517c29,11 57,-6 75,-41l-138 -46c12,44 35,77 63,87z"/>
    <path class="fil0" d="M271 578c29,10 57,-7 76,-43l-141 -47c13,45 36,80 65,90z"/>
    <path class="fil0" d="M723 517c29,-10 52,-43 64,-87l-138 46c18,35 46,52 74,41z"/>
    <path class="fil0" d="M550 578c29,-10 52,-45 64,-90l-140 47c19,36 47,53 76,43z"/>
    <path class="fil0" d="M410 453l411 -138 0 -160c0,0 0,-1 0,-1 0,-3 -2,-6 -5,-7l-403 -147c-2,0 -3,0 -5,0l-403 147c-3,1 -5,4 -5,7 0,0 0,1 0,1l0 160 410 138zm0 -399l270 98 -270 91 -269 -91 269 -98z"/>
   </g>
   <g>
   </g>
   <g>
   </g>
   <g>
   </g>
   <g>
   </g>
   <g>
   </g>
   <g>
   </g>
   <g>
   </g>
   <g>
   </g>
   <g>
   </g>
   <g>
   </g>
   <g>
   </g>
   <g>
   </g>
   <g>
   </g>
   <g>
   </g>
   <g>
   </g>
  </g>
 </g>
</svg>
