<?xml version="1.0" encoding="UTF-8"?>
<!DOCTYPE svg PUBLIC "-//W3C//DTD SVG 1.0//EN" "http://www.w3.org/TR/2001/REC-SVG-20010904/DTD/svg10.dtd">
<!-- Creator: CorelDRAW X7 -->
<svg xmlns="http://www.w3.org/2000/svg" xml:space="preserve" width="3.488mm" height="5.1981mm" version="1.0" style="shape-rendering:geometricPrecision; text-rendering:geometricPrecision; image-rendering:optimizeQuality; fill-rule:evenodd; clip-rule:evenodd"
viewBox="0 0 82 123"
 xmlns:xlink="http://www.w3.org/1999/xlink">
 <defs>
  <style type="text/css">
   <![CDATA[
    .fil0 {fill:#007336}
   ]]>
  </style>
 </defs>
 <g id="Слой_x0020_1">
  <metadata id="CorelCorpID_0Corel-Layer"/>
  <g id="_624267200">
   <path class="fil0" d="M81 114l0 -105c1,0 1,-1 1,-2 0,0 0,-1 -1,-1l1 -5c0,-1 0,-1 0,-1 0,0 -1,0 -1,0l-3 0c0,0 0,0 0,0 -1,0 -1,0 -1,1l1 5c-1,0 -1,1 -1,1 0,0 0,0 0,0l-2 0c0,0 0,0 0,0 0,0 0,-1 -1,-1l1 -5c0,-1 0,-1 0,-1 0,0 -1,0 -1,0l-3 0c0,0 0,0 0,0 -1,0 -1,0 -1,1l1 5c-1,0 -1,1 -1,1 0,0 0,0 0,0l-2 0c0,0 0,0 0,0 0,0 0,-1 -1,-1l1 -5c0,-1 0,-1 0,-1 0,0 -1,0 -1,0l-3 0c0,0 0,0 0,0 -1,0 -1,0 -1,1l1 5c-1,0 -1,1 -1,1 0,0 0,0 0,0l-2 0c0,0 0,0 0,0 0,0 0,-1 -1,-1l1 -5c0,-1 0,-1 0,-1 0,0 -1,0 -1,0l-3 0c0,0 0,0 0,0 -1,0 -1,0 -1,1l1 5c-1,0 -1,1 -1,1 0,0 0,0 0,0l-2 0c0,0 0,0 0,0 0,0 0,-1 -1,-1l1 -5c0,-1 0,-1 0,-1 0,0 -1,0 -1,0l-3 0c0,0 0,0 0,0 -1,0 -1,0 -1,1l1 5c-1,0 -1,1 -1,1 0,0 0,0 0,0l-2 0c0,0 0,0 0,0 0,0 0,-1 -1,-1l1 -5c0,-1 0,-1 0,-1 0,0 -1,0 -1,0l-3 0c0,0 0,0 0,0 0,0 -1,0 -1,1l1 5c-1,0 -1,1 -1,1 0,0 0,0 0,0l-2 0c0,0 0,0 0,0 0,0 0,-1 -1,-1l1 -5c0,-1 0,-1 0,-1 0,0 -1,0 -1,0l-3 0c0,0 0,0 0,0 0,0 -1,0 -1,1l1 5c-1,0 -1,1 -1,1 0,0 0,0 0,0l-2 0c0,0 0,0 0,0 0,0 0,-1 -1,-1l1 -5c0,-1 0,-1 0,-1 0,0 -1,0 -1,0l-3 0c0,0 0,0 0,0 0,0 -1,0 -1,1l1 5c-1,0 -1,1 -1,1 0,0 0,0 0,0l-2 0c0,0 0,0 0,0 0,0 0,-1 -1,-1l1 -5c0,-1 0,-1 0,-1 0,0 0,0 -1,0l-3 0c0,0 0,0 0,0 0,0 -1,0 -1,1l1 5c-1,0 -1,1 -1,1 0,0 0,0 0,0l-2 0c0,0 0,0 0,0 0,0 0,-1 -1,-1l1 -5c0,-1 0,-1 0,-1 0,0 0,0 -1,0l-3 0c0,0 0,0 0,0 0,0 -1,0 0,1l0 5c-1,0 -1,1 -1,1 0,0 0,0 0,0l-2 0c0,0 0,0 0,0 0,0 0,-1 -1,-1l1 -5c0,-1 0,-1 0,-1 0,0 0,0 -1,0l-3 0c0,0 0,0 0,0 0,0 0,0 0,1l0 5c-1,0 -1,1 -1,1 0,0 0,0 0,0l-2 0c0,0 0,0 0,0 0,0 0,-1 -1,-1l1 -5c0,-1 0,-1 0,-1 0,0 0,0 -1,0l-3 0c0,0 0,0 0,0 0,0 0,0 0,1l0 5c-1,0 -1,1 -1,1 0,1 1,2 2,2l0 105c-1,0 -2,1 -2,1 0,1 0,1 1,2l0 5c0,0 0,0 0,1 0,0 0,0 0,0l3 0c1,0 1,0 1,0 0,-1 0,-1 0,-1l-1 -5c1,-1 1,-1 1,-2 0,0 0,0 0,0l2 0c0,0 0,0 0,0 0,1 0,1 1,2l0 5c0,0 0,0 0,1 0,0 0,0 0,0l3 0c1,0 1,0 1,0 0,-1 0,-1 0,-1l-1 -5c1,-1 1,-1 1,-2 0,0 0,0 0,0l2 0c0,0 0,0 0,0 0,1 0,1 1,2l0 5c-1,0 0,0 0,1 0,0 0,0 0,0l3 0c1,0 1,0 1,0 0,-1 0,-1 0,-1l-1 -5c1,-1 1,-1 1,-2 0,0 0,0 0,0l2 0c0,0 0,0 0,0 0,1 0,1 1,2l-1 5c0,0 1,0 1,1 0,0 0,0 0,0l3 0c1,0 1,0 1,0 0,-1 0,-1 0,-1l-1 -5c1,-1 1,-1 1,-2 0,0 0,0 0,0l2 0c0,0 0,0 0,0 0,1 0,1 1,2l-1 5c0,0 1,0 1,1 0,0 0,0 0,0l3 0c0,0 1,0 1,0 0,-1 0,-1 0,-1l-1 -5c1,-1 1,-1 1,-2 0,0 0,0 0,0l2 0c0,0 0,0 0,0 0,1 0,1 1,2l-1 5c0,0 1,0 1,1 0,0 0,0 0,0l3 0c0,0 1,0 1,0 0,-1 0,-1 0,-1l-1 -5c1,-1 1,-1 1,-2 0,0 0,0 0,0l2 0c0,0 0,0 0,0 0,1 0,1 1,2l-1 5c0,0 1,0 1,1 0,0 0,0 0,0l3 0c0,0 1,0 1,0 0,-1 0,-1 0,-1l-1 -5c1,-1 1,-1 1,-2 0,0 0,0 0,0l2 0c0,0 0,0 0,0 0,1 0,1 1,2l-1 5c0,0 0,0 1,1 0,0 0,0 0,0l3 0c0,0 1,0 1,0 0,-1 0,-1 0,-1l-1 -5c1,-1 1,-1 1,-2 0,0 0,0 0,0l2 0c0,0 0,0 0,0 0,1 0,1 1,2l-1 5c0,0 0,0 1,1 0,0 0,0 0,0l3 0c0,0 1,0 1,0 0,-1 0,-1 0,-1l-1 -5c1,-1 1,-1 1,-2 0,0 0,0 0,0l2 0c0,0 0,0 0,0 0,1 0,1 1,2l-1 5c0,0 0,0 1,1 0,0 0,0 0,0l3 0c0,0 1,0 1,0 0,-1 0,-1 0,-1l-1 -5c1,-1 1,-1 1,-2 0,0 0,0 0,0l2 0c0,0 0,0 0,0 0,1 0,1 1,2l-1 5c0,0 0,0 1,1 0,0 0,0 0,0l3 0c0,0 1,0 1,0 0,-1 0,-1 0,-1l-1 -5c1,-1 1,-1 1,-2 0,0 0,0 0,0l2 0c0,0 0,0 0,0 0,1 0,1 1,2l-1 5c0,0 0,0 1,1 0,0 0,0 0,0l3 0c0,0 1,0 1,0 0,-1 0,-1 0,-1l-1 -5c1,-1 1,-1 1,-2 0,0 0,-1 -1,-1zm-12 -11l-56 0 0 -63c0,-13 28,-21 28,-21 0,0 28,8 28,21l0 63z"/>
   <g>
   </g>
   <g>
   </g>
   <g>
   </g>
   <g>
   </g>
   <g>
   </g>
   <g>
   </g>
   <g>
   </g>
   <g>
   </g>
   <g>
   </g>
   <g>
   </g>
   <g>
   </g>
   <g>
   </g>
   <g>
   </g>
   <g>
   </g>
   <g>
   </g>
  </g>
 </g>
</svg>
