<?xml version="1.0" encoding="UTF-8"?>
<!DOCTYPE svg PUBLIC "-//W3C//DTD SVG 1.1//EN" "http://www.w3.org/Graphics/SVG/1.1/DTD/svg11.dtd">
<!-- Creator: CorelDRAW 2020 (64-Bit) -->
<svg xmlns="http://www.w3.org/2000/svg" xml:space="preserve" width="40px" height="40px" version="1.1" style="shape-rendering:geometricPrecision; text-rendering:geometricPrecision; image-rendering:optimizeQuality; fill-rule:evenodd; clip-rule:evenodd"
viewBox="0 0 9797.3 9797.3"
 xmlns:xlink="http://www.w3.org/1999/xlink"
 xmlns:xodm="http://www.corel.com/coreldraw/odm/2003">
 <defs>
  <style type="text/css">
   <![CDATA[
    .fil0 {fill:#FEFEFE;fill-rule:nonzero}
   ]]>
  </style>
 </defs>
 <g id="Layer_x0020_1">
  <metadata id="CorelCorpID_0Corel-Layer"/>
  <g>
   <path class="fil0" d="M7373.6 4898.7c0,978.3 -418.4,1771.7 -934.6,1771.7 -516.1,0 -934.6,-793.4 -934.6,-1771.7 0,-978.3 418.3,-1771.7 934.5,-1771.7 516.1,0 934.6,793.1 934.6,1771.7l0.1 0zm-2475 -4898.7c1352.7,0 2577.4,548.3 3463.9,1434.8 886.5,886.5 1434.8,2111.2 1434.8,3463.9 0,1352.7 -548.3,2577.4 -1434.8,3463.9 -886.5,886.5 -2111.2,1434.8 -3463.9,1434.8 -1352.7,0 -2577.4,-548.3 -3463.9,-1434.8 -886.5,-886.5 -1434.8,-2111.2 -1434.8,-3463.9 0,-1352.7 548.3,-2577.4 1434.8,-3463.9 886.5,-886.5 2111.2,-1434.8 3463.9,-1434.8zm424.5 4898.7c0,1039.3 -836.8,1881.9 -1869.1,1881.9 -1032.2,0 -1869.1,-842.5 -1869.1,-1881.9 0,-1039.3 836.8,-1881.9 1869.1,-1881.9 1032.3,0 1869.1,842.6 1869.1,1881.9zm2050.4 0l0 0 0 0zm838.7 0c0,876.3 -147.1,1587.2 -328.7,1587.2 -181.5,0 -328.6,-710.6 -328.6,-1587.2 0,-876.5 147.1,-1587.2 328.6,-1587.2 181.5,0 328.7,710.6 328.7,1587.2zm-89.1 -3224.5c-825.2,-825.2 -1965.3,-1335.6 -3224.5,-1335.6 -1259.3,0 -2399.3,510.4 -3224.5,1335.6 -825.2,825.2 -1335.6,1965.3 -1335.6,3224.5 0,1259.3 510.4,2399.3 1335.6,3224.5 825.2,825.2 1965.3,1335.6 3224.5,1335.6 1259.3,0 2399.3,-510.4 3224.5,-1335.6 825.2,-825.2 1335.6,-1965.3 1335.6,-3224.5 0,-1259.3 -510.4,-2399.3 -1335.6,-3224.5z"/>
  </g>
 </g>
</svg>
