<?xml version="1.0" encoding="UTF-8"?>
<!DOCTYPE svg PUBLIC "-//W3C//DTD SVG 1.0//EN" "http://www.w3.org/TR/2001/REC-SVG-20010904/DTD/svg10.dtd">
<!-- Creator: CorelDRAW X7 -->
<svg xmlns="http://www.w3.org/2000/svg" xml:space="preserve" width="5.15mm" height="4.0954mm" version="1.0" style="shape-rendering:geometricPrecision; text-rendering:geometricPrecision; image-rendering:optimizeQuality; fill-rule:evenodd; clip-rule:evenodd"
viewBox="0 0 70 56"
 xmlns:xlink="http://www.w3.org/1999/xlink">
 <defs>
  <style type="text/css">
   <![CDATA[
    .fil0 {fill:#007336}
   ]]>
  </style>
 </defs>
 <g id="Слой_x0020_1">
  <metadata id="CorelCorpID_0Corel-Layer"/>
  <path class="fil0" d="M6 56l23 0 -2 -1c3,-5 5,-11 4,-14 0,-2 -1,-3 -2,-5 -1,-2 -2,-4 0,-6 4,-8 5,-13 5,-15 0,0 0,-2 -1,-3 -2,4 -4,8 -6,12 2,-5 3,-9 5,-14 0,0 0,0 0,0 1,-4 -1,-5 -2,-5 -2,6 -5,12 -8,17 3,-6 6,-12 7,-19 0,0 0,0 0,0 0,0 0,0 0,0 0,0 0,0 0,0 0,-1 0,-1 -1,-2 0,0 -1,0 -2,0 0,0 -1,1 -1,1 0,7 -7,14 -11,20 4,-6 7,-12 9,-18 1,-3 0,-4 0,-4 -1,0 -2,0 -3,1 -1,1 -3,3 -4,5 0,1 -1,1 -1,1 -1,2 -2,4 -3,5 -1,1 -1,2 -2,3 0,0 0,1 -1,1l0 1c0,0 0,0 0,0 1,6 1,12 0,17 3,0 6,3 8,5 -2,-2 -5,-5 -9,-4 1,-6 0,-12 -1,-18 -1,-2 -1,-3 -2,-3 0,-1 -1,-1 -2,-1 0,0 0,1 0,4 0,0 0,0 0,0 -1,7 -2,18 -3,21 0,1 0,3 0,4 1,2 4,7 8,12l-2 2zm36 0l22 0 -1 -2c4,-5 6,-10 7,-12 0,-1 1,-3 0,-4 0,-3 -2,-14 -2,-21 0,0 0,0 0,0 0,-3 -1,-4 -1,-4 -1,0 -1,0 -1,1 -1,0 -2,1 -2,3 -2,6 -2,12 -2,18 -3,-1 -7,2 -9,4 2,-2 5,-5 8,-5 0,-5 0,-11 1,-17 0,0 0,0 0,0l-1 -1c0,0 -1,-1 -1,-1 0,-1 -1,-2 -1,-3 -1,-1 -3,-3 -4,-5 0,0 0,0 0,-1 -2,-2 -4,-4 -5,-5 -1,-1 -1,-1 -2,-1 -1,0 -1,1 -1,1 0,0 0,0 0,0 0,7 6,15 9,21 -4,-6 -10,-13 -11,-20 0,0 0,-1 0,-1 -1,0 -2,0 -3,0 0,1 -1,1 -1,2 1,3 5,13 8,19 -4,-5 -7,-11 -9,-17 0,0 -2,1 -1,5 0,0 0,0 0,0 1,5 3,9 5,14 -2,-4 -4,-8 -6,-12 -1,1 -1,3 -1,3 0,2 0,7 5,15 1,2 0,4 -1,6 -1,2 -1,3 -2,5 0,3 2,9 5,14l-2 1z"/>
 </g>
</svg>
