<?xml version="1.0" encoding="UTF-8"?>
<!DOCTYPE svg PUBLIC "-//W3C//DTD SVG 1.0//EN" "http://www.w3.org/TR/2001/REC-SVG-20010904/DTD/svg10.dtd">
<!-- Creator: CorelDRAW X7 -->
<svg xmlns="http://www.w3.org/2000/svg" xml:space="preserve" width="40px" height="40px" version="1.0" style="shape-rendering:geometricPrecision; text-rendering:geometricPrecision; image-rendering:optimizeQuality; fill-rule:evenodd; clip-rule:evenodd"
viewBox="0 0 613 613"
 xmlns:xlink="http://www.w3.org/1999/xlink">
 <defs>
  <style type="text/css">
   <![CDATA[
    .fil1 {fill:#FEFEFE}
    .fil0 {fill:#FEFEFE;fill-rule:nonzero}
   ]]>
  </style>
 </defs>
 <g id="Слой_x0020_1">
  <metadata id="CorelCorpID_0Corel-Layer"/>
  <g id="_474579600">
   <path class="fil0" d="M507 107c-51,-51 -122,-83 -200,-83 -78,0 -149,32 -200,83 -51,51 -83,122 -83,200 0,78 32,149 83,200 51,51 122,82 200,82 78,0 149,-31 200,-82 51,-51 83,-122 83,-200 0,-78 -32,-149 -83,-200l0 0zm-200 -107c84,0 161,34 217,90 55,55 89,132 89,217 0,84 -34,161 -89,217 -56,55 -133,89 -217,89 -85,0 -162,-34 -217,-89 -56,-56 -90,-133 -90,-217 0,-85 34,-162 90,-217 55,-56 132,-90 217,-90l0 0z"/>
   <path class="fil1" d="M132 387l0 0c-7,0 -13,-5 -13,-12l0 -26c0,-7 6,-13 13,-13 7,0 13,6 13,13l0 26c0,7 -6,12 -13,12l0 0zm317 0c25,0 45,-19 45,-45 0,-25 -20,-45 -45,-45 -5,0 -10,1 -15,3 -8,-43 -45,-74 -88,-74 -7,0 -13,1 -20,2l0 159 123 0zm-162 0l0 0c-7,0 -13,-7 -13,-16l0 -97c0,-9 6,-16 13,-16 7,0 13,7 13,16l0 97c0,9 -6,16 -13,16l0 0zm-51 0l0 0c-8,0 -13,-5 -13,-12l0 -78c0,-7 5,-13 13,-13 7,0 13,6 13,13l0 78c0,7 -6,12 -13,12l0 0zm-52 0l0 0c-7,0 -13,-5 -13,-12l0 -52c0,-7 6,-13 13,-13 7,0 13,6 13,13l0 52c0,7 -6,12 -13,12l0 0z"/>
  </g>
 </g>
</svg>
