<?xml version="1.0" encoding="UTF-8"?>
<!DOCTYPE svg PUBLIC "-//W3C//DTD SVG 1.0//EN" "http://www.w3.org/TR/2001/REC-SVG-20010904/DTD/svg10.dtd">
<!-- Creator: CorelDRAW X7 -->
<svg xmlns="http://www.w3.org/2000/svg" xml:space="preserve" width="40px" height="40px" version="1.0" style="shape-rendering:geometricPrecision; text-rendering:geometricPrecision; image-rendering:optimizeQuality; fill-rule:evenodd; clip-rule:evenodd"
viewBox="0 0 655 655"
 xmlns:xlink="http://www.w3.org/1999/xlink">
 <defs>
  <style type="text/css">
   <![CDATA[
    .fil1 {fill:#FEFEFE}
    .fil0 {fill:#FEFEFE;fill-rule:nonzero}
   ]]>
  </style>
 </defs>
 <g id="Слой_x0020_1">
  <metadata id="CorelCorpID_0Corel-Layer"/>
  <g id="_384498128">
   <path class="fil0" d="M541 114c-54,-55 -130,-88 -213,-88 -84,0 -159,33 -214,88 -55,55 -88,130 -88,214 0,83 33,159 88,213 55,55 130,89 214,89 83,0 159,-34 213,-89 55,-54 89,-130 89,-213 0,-84 -34,-159 -89,-214l0 0zm-213 -114c90,0 172,37 231,96 60,59 96,141 96,232 0,90 -36,172 -96,231 -59,59 -141,96 -231,96 -91,0 -173,-37 -232,-96 -59,-59 -96,-141 -96,-231 0,-91 37,-173 96,-232 59,-59 141,-96 232,-96l0 0z"/>
   <path class="fil1" d="M384 324l-91 49 0 -98 41 22 50 27zm108 -66c0,0 -4,-24 -14,-35 -12,-14 -27,-14 -33,-15 -47,-3 -117,-3 -117,-3l-1 0c0,0 -70,0 -116,3 -7,1 -21,1 -34,15 -10,11 -13,35 -13,35 0,0 -4,28 -4,56l0 27c0,28 4,56 4,56 0,0 3,24 13,35 13,14 29,13 37,15 27,2 114,3 114,3 0,0 70,0 117,-3 6,-1 21,-1 33,-15 10,-11 14,-35 14,-35 0,0 3,-28 3,-56l0 -27c0,-28 -3,-56 -3,-56l0 0z"/>
  </g>
 </g>
</svg>
