<?xml version="1.0" encoding="UTF-8"?>
<!DOCTYPE svg PUBLIC "-//W3C//DTD SVG 1.0//EN" "http://www.w3.org/TR/2001/REC-SVG-20010904/DTD/svg10.dtd">
<!-- Creator: CorelDRAW X7 -->
<svg xmlns="http://www.w3.org/2000/svg" xml:space="preserve" width="4.47mm" height="4.6732mm" version="1.0" style="shape-rendering:geometricPrecision; text-rendering:geometricPrecision; image-rendering:optimizeQuality; fill-rule:evenodd; clip-rule:evenodd"
viewBox="0 0 53 56"
 xmlns:xlink="http://www.w3.org/1999/xlink">
 <defs>
  <style type="text/css">
   <![CDATA[
    .fil0 {fill:#007336}
   ]]>
  </style>
 </defs>
 <g id="Слой_x0020_1">
  <metadata id="CorelCorpID_0Corel-Layer"/>
  <g id="_622664896">
   <path class="fil0" d="M23 31c0,2 2,3 4,3 2,0 3,-1 3,-3 0,-2 -1,-4 -3,-4 -2,0 -4,2 -4,4z"/>
   <path class="fil0" d="M27 20c-2,0 -3,2 -3,3 0,2 1,3 3,3 1,0 2,-1 2,-3 0,-1 -1,-3 -2,-3z"/>
   <path class="fil0" d="M53 1c-3,-2 -11,0 -11,0 0,0 0,0 0,0 0,2 -1,3 -2,4 -1,1 -3,1 -3,1 0,0 0,0 0,0l-8 0c-1,0 -2,1 -2,1 0,0 0,0 0,0l-10 13c-1,1 -1,2 0,3 0,1 1,1 2,1 0,0 1,0 1,-1l9 -8 4 0 -2 2c-1,1 -1,3 -1,4 1,1 3,1 4,0 0,0 5,-4 8,-5 4,-2 6,-4 7,-8 1,-2 3,-4 4,-6 0,-1 0,-1 0,-1z"/>
   <path class="fil0" d="M0 55c3,2 11,0 11,0 1,0 1,0 1,0 0,-2 0,-4 1,-4 2,-2 3,-2 3,-2 0,0 0,0 0,0l9 0c0,0 1,0 1,0 0,0 0,0 1,0l10 -13c1,-1 1,-2 0,-3 -1,-1 -2,-1 -2,-1 -1,0 -2,0 -2,0l-8 9 -5 0 3 -2c1,-1 1,-3 0,-4 -1,-1 -3,-1 -4,0 0,0 -5,4 -8,5 -3,2 -5,4 -7,7 -1,2 -2,5 -4,7 0,0 0,1 0,1z"/>
  </g>
 </g>
</svg>
